<svg xmlns="http://www.w3.org/2000/svg" viewBox="0 0 512 512" role="img" aria-label="Souza Tech"><title>Souza Tech</title><defs><linearGradient id="g" x1="0" y1="0" x2="1" y2="1"><stop offset="0" stop-color="#7DDBFF"/><stop offset="1" stop-color="#00B2FF"/></linearGradient></defs><rect width="512" height="512" rx="112" fill="url(#g)"/><g transform="translate(70 106)"><path fill="#0A0F1C" d="M83.1 261Q62.7 261 47.4 254.55Q32.1 248.1 23.55 236.7Q15 225.3 15 210H59.1Q59.1 218.4 65.4 222.6Q71.7 226.8 83.1 226.8H96.3Q108.6 226.8 115.35 222.6Q122.1 218.4 122.1 210.6Q122.1 203.1 116.7 199.65Q111.3 196.2 100.2 195L62.4 190.5Q40.5 187.8 28.8 174.15Q17.1 160.5 17.1 140.1Q17.1 90 81.3 90H95.4Q125.7 90 143.7 103.2Q161.7 116.4 161.7 138.6H117.6Q117.6 131.4 111.75 127.5Q105.9 123.6 95.4 123.6H81.3Q70.8 123.6 65.4 127.5Q60 131.4 60 138.3Q60 145.2 65.25 147.6Q70.5 150 80.1 151.2L116.1 155.7Q140.4 158.7 152.7 172.8Q165 186.9 165 210Q165 234.3 147.6 247.65Q130.2 261 96.3 261Z"/><rect x="204" y="22.5" width="66" height="255" fill="#F4F7FD"/><rect x="291" y="22.5" width="66" height="255" fill="#0A0F1C"/></g></svg>
