<svg xmlns="http://www.w3.org/2000/svg" viewBox="0 0 642 98" role="img" aria-label="Souza Tech"><title>Souza Tech</title><g transform="translate(-1 -1)"><path fill="#F4F7FD" d="M27.7 87Q20.9 87 15.8 84.85Q10.7 82.7 7.85 78.9Q5 75.1 5 70H19.7Q19.7 72.8 21.8 74.2Q23.9 75.6 27.7 75.6H32.1Q36.2 75.6 38.45 74.2Q40.7 72.8 40.7 70.2Q40.7 67.7 38.9 66.55Q37.1 65.4 33.4 65L20.8 63.5Q13.5 62.6 9.6 58.05Q5.7 53.5 5.7 46.7Q5.7 30 27.1 30H31.8Q41.9 30 47.9 34.4Q53.9 38.8 53.9 46.2H39.2Q39.2 43.8 37.25 42.5Q35.3 41.2 31.8 41.2H27.1Q23.6 41.2 21.8 42.5Q20 43.8 20 46.1Q20 48.4 21.75 49.2Q23.5 50 26.7 50.4L38.7 51.9Q46.8 52.9 50.9 57.6Q55 62.3 55 70Q55 78.1 49.2 82.55Q43.4 87 32.1 87ZM87 87Q79.7 87 74.3 84.25Q68.9 81.5 65.95 76.55Q63 71.6 63 65V52Q63 45.4 65.95 40.45Q68.9 35.5 74.3 32.75Q79.7 30 87 30Q94.4 30 99.75 32.75Q105.1 35.5 108.05 40.45Q111 45.4 111 52V65Q111 71.6 108.05 76.55Q105.1 81.5 99.75 84.25Q94.4 87 87 87ZM87 74Q91.4 74 93.7 71.65Q96 69.3 96 65V52Q96 47.6 93.7 45.3Q91.4 43 87 43Q82.7 43 80.35 45.3Q78 47.6 78 52V65Q78 69.3 80.35 71.65Q82.7 74 87 74ZM144 87Q132.9 87 126.65 81Q120.4 75 120.4 64.6V31H135.4V64.5Q135.4 74 144 74Q148.1 74 150.35 71.55Q152.6 69.1 152.6 64.5V31H167.6V64.6Q167.6 75.1 161.3 81.05Q155 87 144 87ZM178 86V73L205.2 44H179V31H222.9V44L195.7 73H224V86ZM250.9 87Q242.7 87 237.9 82.25Q233.1 77.5 233.1 69.8Q233.1 61.5 239 56.7Q244.9 51.9 255.6 51.9H266.4V48.4Q266.4 45.3 264.25 43.55Q262.1 41.8 258.1 41.8Q254.3 41.8 252.05 43.3Q249.8 44.8 249.6 47.7H235.4Q235.7 39.6 241.8 34.8Q247.9 30 258.3 30Q269.2 30 275.3 35Q281.4 40 281.4 49V86H266.9V76.5Q265.9 81.4 261.65 84.2Q257.4 87 250.9 87ZM256.2 75Q260.9 75 263.65 72.65Q266.4 70.3 266.4 66.5V60.9H255.9Q251.9 60.9 249.75 62.85Q247.6 64.8 247.6 67.9Q247.6 71 249.85 73Q252.1 75 256.2 75Z"/><path fill="#00B2FF" d="M315 87Q310.5 87 307.7 84.2Q304.9 81.4 304.9 76.9Q304.9 72.4 307.7 69.6Q310.5 66.8 315 66.8Q319.5 66.8 322.3 69.6Q325.1 72.4 325.1 76.9Q325.1 81.4 322.3 84.2Q319.5 87 315 87ZM377.5 86Q369.1 86 364.3 81.2Q359.5 76.4 359.5 68V44.5H344.7V31H359.5V15.5H374.5V31H396V44.5H374.5V67.5Q374.5 69.7 375.65 71.1Q376.8 72.5 379 72.5H395.5V86ZM429.1 87Q421.8 87 416.35 84.25Q410.9 81.5 407.95 76.55Q405 71.6 405 65V52Q405 45.4 407.95 40.45Q410.9 35.5 416.35 32.75Q421.8 30 429.1 30Q436.4 30 441.75 32.75Q447.1 35.5 450.05 40.45Q453 45.4 453 52V62.2H419.3V65Q419.3 70.2 421.75 72.6Q424.2 75 429.1 75Q432.3 75 434.7 74Q437.1 73 437.5 71H452.2Q450.6 78.2 444.3 82.6Q438 87 429.1 87ZM419.3 52V53.3L438.7 53.1V51.8Q438.7 46.7 436.35 43.9Q434 41.1 429.1 41.1Q424.2 41.1 421.75 44Q419.3 46.9 419.3 52ZM486.9 87Q479.6 87 474.1 84.25Q468.6 81.5 465.6 76.55Q462.6 71.6 462.6 65V52Q462.6 45.3 465.6 40.4Q468.6 35.5 474.1 32.75Q479.6 30 486.9 30Q497.8 30 504.3 35.5Q510.8 41 511.2 50.5H496.6Q496.3 47 493.65 45Q491 43 486.9 43Q482.4 43 480 45.3Q477.6 47.6 477.6 52V65Q477.6 69.3 480 71.65Q482.4 74 486.9 74Q491 74 493.65 72.05Q496.3 70.1 496.6 66.5H511.2Q510.8 76 504.3 81.5Q497.8 87 486.9 87ZM519.6 86V13H534.6V31L534.1 40.9Q535.4 35.9 539.35 32.95Q543.3 30 548.9 30Q556.9 30 561.75 35.6Q566.6 41.2 566.6 50.5V86H551.6V52Q551.6 47.7 549.35 45.35Q547.1 43 543.1 43Q539.1 43 536.85 45.35Q534.6 47.7 534.6 52V86Z"/><rect x="580" y="5" width="26" height="90" fill="#7DDBFF"/><rect x="613" y="5" width="26" height="90" fill="#00B2FF"/></g></svg>
